HIERARCHY
ROOT Hips
{
	OFFSET 0.000000 0.000000 0.000000 
	CHANNELS 6 Xposition Yposition Zposition Yrotation Zrotation Xrotation 
	JOINT Lumbar
	{
		OFFSET 0.000000 0.000000 0.000000 
		CHANNELS 3 Zrotation Xrotation Yrotation
		JOINT Neck
		{
			OFFSET 0.000000 0.445665 0.000000 
			CHANNELS 3 Zrotation Xrotation Yrotation
			End Site
			{
				OFFSET 0.000000 0.227535 0.000000 
			}
		}
		JOINT RightShoulder
		{
			OFFSET 0.019635 0.377685 0.194865 
			CHANNELS 3 Zrotation Xrotation Yrotation
			JOINT RightElbow
			{
				OFFSET 0.000000 -0.243375 0.000000 
				CHANNELS 2 Zrotation Yrotation
				JOINT RightWrist
				{
					OFFSET 0.000000 -0.264825 0.000000 
					CHANNELS 2 Zrotation Xrotation
					End Site
					{
						OFFSET 0.006600 -0.176220 0.000990 
					}
				}
			}
		}
		JOINT LeftShoulder
		{
			OFFSET 0.019635 0.377685 -0.194865 
			CHANNELS 3 Zrotation Xrotation Yrotation
			JOINT LeftElbow
			{
				OFFSET 0.000000 -0.243375 0.000000 
				CHANNELS 2 Zrotation Yrotation
				JOINT LeftWrist
				{
					OFFSET 0.000000 -0.264825 0.000000 
					CHANNELS 2 Zrotation Xrotation
					End Site
					{
						OFFSET 0.006600 -0.176220 -0.000990 
					}
				}
			}
		}
	}
	JOINT RightHip
	{
		OFFSET 0.052140 -0.069960 0.075570 
		CHANNELS 3 Zrotation Xrotation Yrotation
		JOINT RightKnee
		{
			OFFSET 0.000000 -0.402270 0.000000 
			CHANNELS 1 Zrotation
			JOINT RightAnkle
			{
				OFFSET 0.000000 -0.404085 0.000000 
				CHANNELS 3 Zrotation Xrotation Yrotation
				End Site
				{
					OFFSET 0.204105 -0.089430 0.008415 
				}
			}
		}
	}
	JOINT LeftHip
	{
		OFFSET 0.052140 -0.069960 -0.075570 
		CHANNELS 3 Zrotation Xrotation Yrotation
		JOINT LeftKnee
		{
			OFFSET 0.000000 -0.402270 0.000000 
			CHANNELS 1 Zrotation
			JOINT LeftAnkle
			{
				OFFSET 0.000000 -0.404085 0.000000 
				CHANNELS 3 Zrotation Xrotation Yrotation
				End Site
				{
					OFFSET 0.204105 -0.089430 -0.008415 
				}
			}
		}
	}
}
MOTION
Frames: 22
Frame Time: 0.02
-1.03249 -0.51386 0.42755 388.45637 5.51856 -2.8665 13.96987 -1.41285 -1.31638 8.88726 -6.43173 -0.83079 39.26117 10.10562 32.81606 127.86678 73.13213 13.31234 -5.45275 28.69022 -8.51391 8.38405 14.53129 -43.04719 -24.91518 -3.17688 112.78792 -10.31086 -1.79124 -120.69233 -16.85569 -1.32195 -1.66011 80.85408 7.43099 -4.36891 -56.35784 -19.16131 2.34479 2.39516
-1.03153 -0.51276 0.42663 388.49777 5.11104 -2.96865 14.26124 -1.36277 -1.22053 8.87669 -6.21705 -0.83079 39.33391 10.11034 32.58019 127.89038 72.95405 13.51024 -5.47005 27.15868 -8.26092 6.33028 16.78806 -42.47034 -25.34281 -3.2033 112.8439 -10.34181 -1.80861 -121.7955 -16.72476 -1.28255 -1.62259 80.70993 7.63347 -4.32949 -54.60038 -19.37896 2.2798 2.36423
-1.03036 -0.51141 0.42561 388.5191 4.64409 -3.06903 14.5871 -1.30602 -1.11441 8.92307 -6.00312 -0.83079 39.48896 10.10154 32.34569 127.89977 72.8051 13.70671 -5.48026 25.23265 -7.89444 3.41632 19.64361 -41.85373 -25.72675 -3.24998 112.84707 -10.34844 -1.69054 -122.87077 -16.49352 -1.25219 -1.58441 80.55874 8.1043 -3.82739 -52.85168 -19.56849 2.21299 2.3303
-1.02927 -0.51018 0.42462 388.54745 4.20593 -3.17236 14.8934 -1.25109 -1.01696 8.9466 -5.78524 -0.83079 39.62236 10.07144 32.12147 127.9182 72.67418 13.85974 -5.4911 23.51902 -7.56368 0.9064 22.17382 -41.37025 -26.08446 -3.27331 112.87419 -10.36368 -1.62593 -123.95349 -16.31059 -1.2143 -1.54483 80.40663 8.44256 -3.55472 -51.11832 -19.76714 2.14863 2.29865
-1.02823 -0.50894 0.4237 388.58509 3.75586 -3.26737 15.22031 -1.20097 -0.90244 8.95739 -5.58282 -0.83079 39.69703 10.14878 31.8513 127.92413 72.42112 14.18738 -5.51194 21.65948 -7.30035 -1.65758 24.93499 -40.42579 -26.63109 -3.35314 112.89557 -10.39135 -1.5935 -125.05879 -16.1137 -1.19014 -1.51181 80.27376 8.81641 -3.22094 -49.29759 -19.98173 2.07689 2.26287
-1.02703 -0.50766 0.42261 388.59881 3.31912 -3.37905 15.50987 -1.13914 -0.82188 9.00771 -5.34804 -0.83079 39.90496 10.00973 31.67484 127.95347 72.41578 14.16684 -5.51161 20.0137 -6.87271 -4.30216 27.35242 -40.40982 -26.78089 -3.323 112.91943 -10.38714 -1.46267 -126.10782 -15.92425 -1.14006 -1.46547 80.09773 9.18326 -2.89514 -47.66547 -20.1539 2.02035 2.23501
-1.02544 -0.5063 0.42108 388.54675 2.92197 -3.53657 15.69981 -1.04971 -0.8277 9.15962 -5.02681 -0.83079 40.53108 9.18314 31.78595 128.04969 73.21275 13.03983 -5.44221 19.04062 -5.97834 -7.10397 28.70463 -43.12666 -25.78435 -2.96334 112.95345 -10.29347 -1.09309 -127.03873 -15.76447 -1.01309 -1.37947 79.81417 9.4668 -2.72835 -46.52422 -20.24594 2.00538 2.2307
-1.0237 -0.50492 0.41937 388.47201 2.54299 -3.71083 15.84809 -0.94834 -0.86953 9.34819 -4.67254 -0.83079 41.27585 8.15504 31.98684 128.17066 74.23759 11.58653 -5.35379 18.30005 -4.92939 -9.93345 29.68417 -46.74914 -24.40096 -2.49627 112.9942 -10.16955 -0.62967 -127.90908 -15.61854 -0.86044 -1.28076 79.48626 9.73487 -2.57954 -45.5786 -20.29181 2.00595 2.23436
-1.02206 -0.50357 0.41772 388.41064 2.1638 -3.87786 16.00745 -0.85033 -0.90162 9.51597 -4.33118 -0.83079 41.91906 7.28245 32.12713 128.28096 75.07258 10.38135 -5.28252 17.46237 -3.9776 -12.65559 30.81375 -49.84986 -23.23542 -2.09243 113.03903 -10.0639 -0.20937 -128.78697 -15.47673 -0.72153 -1.18989 79.1709 10.01051 -2.40324 -44.56149 -20.33828 2.00006 2.23378
-1.02029 -0.50211 0.41614 388.33585 1.74829 -4.04363 16.20212 -0.76031 -0.90654 9.70341 -3.99816 -0.83079 42.76333 6.14616 32.34857 128.3872 76.26152 8.76636 -5.17618 16.57285 -2.90903 -15.8024 32.04549 -53.41038 -21.89267 -1.62892 113.05222 -9.93831 0.21848 -129.74635 -15.28804 -0.57385 -1.09014 78.88391 10.29386 -2.28891 -43.46911 -20.46626 1.99171 2.23565
-1.01875 -0.50088 0.4144 388.28364 1.41379 -4.21551 16.31177 -0.6515 -0.97528 9.85756 -3.64064 -0.83079 43.21963 5.5031 32.42536 128.50934 76.78125 7.91277 -5.13707 15.85404 -2.04755 -18.06659 32.9686 -56.23398 -20.82545 -1.26331 113.13307 -9.84744 0.65015 -130.52434 -15.20082 -0.43865 -1.00602 78.53178 10.55304 -2.06045 -42.58237 -20.4183 1.99199 2.23441
-1.01782 -0.50025 0.41219 388.30142 1.29671 -4.40452 16.20609 -0.48891 -1.22407 9.9132 -3.2175 -0.83079 42.54271 6.34402 32.05453 128.65745 75.2729 9.36944 -5.30061 15.532 -1.80414 -17.82614 33.12234 -56.7553 -20.63355 -1.19978 113.40387 -9.85925 1.07651 -130.79501 -15.39744 -0.34055 -0.967 77.97203 10.75682 -1.47288 -42.19355 -19.85754 2.01434 2.22209
-1.01713 -0.49985 0.40984 388.34238 1.26115 -4.59825 16.01441 -0.30883 -1.53355 9.93338 -2.77206 -0.83079 41.4767 7.67529 31.54002 128.82276 73.10529 11.58071 -5.53037 15.37916 -1.77364 -16.70303 32.9763 -56.51222 -20.72881 -1.23743 113.74152 -9.90722 1.50112 -130.8886 -15.6947 -0.25654 -0.94436 77.35492 10.93418 -0.77908 -42.00836 -19.12827 2.0445 2.2065
-1.01635 -0.49937 0.40762 388.37151 1.1898 -4.78701 15.85586 -0.13986 -1.80699 9.96794 -2.34075 -0.83079 40.61032 8.73382 31.10838 128.98833 71.32222 13.36141 -5.7215 15.16234 -1.64047 -16.02015 32.97062 -56.64962 -20.67979 -1.22501 114.04627 -9.9392 1.92163 -131.0783 -15.94209 -0.16844 -0.91501 76.79016 11.11723 -0.16267 -41.74516 -18.50184 2.0697 2.19278
-1.01548 -0.49878 0.40514 388.40546 1.11384 -4.98845 15.72095 0.04321 -2.11731 10.01107 -1.89116 -0.83079 39.65298 9.99385 30.60532 129.12159 69.19267 15.49676 -5.94724 14.8984 -1.52606 -15.17575 32.93719 -56.67987 -20.67535 -1.2259 114.36352 -9.96843 2.36761 -131.2029 -16.20822 -0.06972 -0.88215 76.11526 11.32615 0.57459 -41.43007 -17.76434 2.10122 2.17769
-1.01485 -0.49847 0.40316 388.43495 1.06646 -5.16419 15.51697 0.20053 -2.36486 10.02753 -1.47512 -0.83079 38.78971 10.95594 30.21616 129.32474 67.62006 17.08184 -6.11782 14.77038 -1.42607 -14.45515 32.89231 -56.73875 -20.65136 -1.22475 114.66842 -10.01213 2.75707 -131.41802 -16.45793 0.00324 -0.8606 75.65374 11.47562 1.08769 -41.26558 -17.21698 2.12143 2.1646
-1.01475 -0.49885 0.40257 388.4483 1.07944 -5.26929 15.14326 0.28558 -2.4231 9.97785 -1.15471 -0.83079 38.29336 10.95321 30.17257 129.72638 67.79022 16.92161 -6.11152 14.97077 -1.30719 -14.31281 32.91449 -57.06984 -20.50459 -1.19171 114.94131 -10.08938 3.00599 -131.95966 -16.64746 0.00808 -0.86667 75.8218 11.46233 0.93644 -41.49539 -17.25163 2.10682 2.15749
-1.01487 -0.49949 0.40249 388.45605 1.11806 -5.34795 14.70336 0.34349 -2.41603 9.90243 -0.86973 -0.83079 37.90255 10.63877 30.24872 130.19567 68.53431 16.19084 -6.0489 15.30181 -1.19754 -14.3217 32.93288 -57.45042 -20.32997 -1.15394 115.19611 -10.17972 3.19495 -132.59273 -16.81517 -0.01253 -0.88352 76.20216 11.39108 0.55934 -41.864 -17.48085 2.0808 2.1525
-1.01491 -0.50001 0.40219 388.46534 1.14386 -5.43776 14.29389 0.41171 -2.43956 9.83956 -0.56998 -0.83079 37.45462 10.48269 30.27248 130.62768 68.98596 15.75001 -6.01789 15.57578 -1.08877 -14.24744 32.93777 -57.79976 -20.16898 -1.11989 115.4469 -10.26254 3.40077 -133.16232 -16.9863 -0.02134 -0.89523 76.46795 11.34975 0.29871 -42.1489 -17.61073 2.06107 2.14671
-1.0149 -0.50055 0.40182 388.47994 1.17724 -5.53169 13.87944 0.48903 -2.46173 9.77249 -0.26274 -0.83079 37.03068 10.27346 30.28336 131.08853 69.54834 15.20608 -5.96454 15.84691 -0.96579 -14.20238 32.99488 -58.15997 -20.01335 -1.08272 115.75115 -10.35293 3.64978 -133.81781 -17.18808 -0.03173 -0.90858 76.80697 11.29251 -0.01559 -42.52601 -17.7803 2.03699 2.14016
-1.01504 -0.50111 0.40172 388.48152 1.20014 -5.61031 13.46137 0.5408 -2.46997 9.70774 0.01884 -0.83079 36.58833 10.09408 30.35059 131.50439 70.0248 14.73137 -5.9425 16.15167 -0.87199 -14.14507 32.94797 -58.51912 -19.83665 -1.04955 115.93953 -10.43058 3.79545 -134.31901 -17.31989 -0.04458 -0.92079 77.046 11.25482 -0.27439 -42.74403 -17.91623 2.0191 2.13571
-1.01557 -0.50166 0.40226 388.45125 1.18491 -5.65647 13.04506 0.52792 -2.45936 9.66256 0.24966 -0.83079 36.05903 10.07535 30.5514 131.78554 70.12795 14.58615 -6.029 16.5254 -0.8543 -14.0108 32.60204 -58.86543 -19.60451 -1.02907 115.8065 -10.46627 3.66279 -134.36732 -17.26013 -0.05894 -0.92763 76.94559 11.28704 -0.31398 -42.46446 -17.90725 2.02164 2.13665
